<svg width="18" height="18" viewBox="0 0 18 18" fill="none" xmlns="http://www.w3.org/2000/svg">
<path fill-rule="evenodd" clip-rule="evenodd" d="M8.43283 17.3332H4.36116C2.32449 17.3332 0.666992 15.6757 0.666992 13.6373V4.36317C0.666992 2.32484 2.32449 0.666504 4.36116 0.666504H8.42366C10.462 0.666504 12.1203 2.32484 12.1203 4.36317V5.13984C12.1203 5.48484 11.8403 5.76484 11.4953 5.76484C11.1503 5.76484 10.8703 5.48484 10.8703 5.13984V4.36317C10.8703 3.01317 9.77283 1.9165 8.42366 1.9165H4.36116C3.01366 1.9165 1.91699 3.01317 1.91699 4.36317V13.6373C1.91699 14.9865 3.01366 16.0832 4.36116 16.0832H8.43283C9.77616 16.0832 10.8703 14.9898 10.8703 13.6465V12.8607C10.8703 12.5157 11.1503 12.2357 11.4953 12.2357C11.8403 12.2357 12.1203 12.5157 12.1203 12.8607V13.6465C12.1203 15.6798 10.4653 17.3332 8.43283 17.3332" fill="#3C3C3C"/>
<mask id="mask0_320_816" style="mask-type:luminance" maskUnits="userSpaceOnUse" x="6" y="8" width="12" height="2">
<path fill-rule="evenodd" clip-rule="evenodd" d="M6.49707 8.375H17.7812V9.625H6.49707V8.375Z" fill="white"/>
</mask>
<g mask="url(#mask0_320_816)">
<path fill-rule="evenodd" clip-rule="evenodd" d="M17.1562 9.625H7.12207C6.77707 9.625 6.49707 9.345 6.49707 9C6.49707 8.655 6.77707 8.375 7.12207 8.375H17.1562C17.5012 8.375 17.7812 8.655 17.7812 9C17.7812 9.345 17.5012 9.625 17.1562 9.625" fill="#3C3C3C"/>
</g>
<mask id="mask1_320_816" style="mask-type:luminance" maskUnits="userSpaceOnUse" x="14" y="5" width="4" height="8">
<path fill-rule="evenodd" clip-rule="evenodd" d="M14.0918 5.9458H17.7813V12.0548H14.0918V5.9458Z" fill="white"/>
</mask>
<g mask="url(#mask1_320_816)">
<path fill-rule="evenodd" clip-rule="evenodd" d="M14.7166 12.0548C14.5566 12.0548 14.3958 11.9939 14.2741 11.8706C14.0308 11.6256 14.0316 11.2306 14.2758 10.9873L16.2708 8.99976L14.2758 7.01309C14.0316 6.76976 14.0299 6.37476 14.2741 6.12976C14.5174 5.88476 14.9124 5.88476 15.1574 6.12809L17.5974 8.55726C17.7158 8.67393 17.7816 8.83393 17.7816 8.99976C17.7816 9.16559 17.7158 9.32559 17.5974 9.44226L15.1574 11.8723C15.0358 11.9939 14.8758 12.0548 14.7166 12.0548" fill="#3C3C3C"/>
</g>
</svg>
