<svg width="15" height="18" viewBox="0 0 15 18" fill="none" xmlns="http://www.w3.org/2000/svg">
<mask id="mask0_320_925" style="mask-type:luminance" maskUnits="userSpaceOnUse" x="0" y="0" width="15" height="18">
<path fill-rule="evenodd" clip-rule="evenodd" d="M0.5 0.67627H14.7106V17.2209H0.5V0.67627Z" fill="white"/>
</mask>
<g mask="url(#mask0_320_925)">
<path fill-rule="evenodd" clip-rule="evenodd" d="M4.31092 1.92627C2.93009 1.92627 1.78342 3.0446 1.75092 4.42377V13.3363C1.72009 14.7638 2.84509 15.9396 4.25842 15.9713H10.9784C12.3693 15.9138 13.4709 14.7579 13.4609 13.3413V5.9496L9.59842 1.92627H4.32092H4.31092ZM4.32092 17.2213H4.23009C2.12842 17.1738 0.455086 15.4254 0.50092 13.3229V4.40877C0.549253 2.34127 2.25675 0.67627 4.30925 0.67627H4.32342H9.86509C10.0351 0.67627 10.1976 0.745436 10.3159 0.867936L14.5368 5.26544C14.6484 5.38127 14.7109 5.5371 14.7109 5.69794V13.3363C14.7259 15.4271 13.0976 17.1354 11.0034 17.2204L4.32092 17.2213Z" fill="#3C3C3C"/>
</g>
<path fill-rule="evenodd" clip-rule="evenodd" d="M14.0823 6.48699H11.7865C10.2615 6.48283 9.02148 5.23949 9.02148 3.71616V1.29199C9.02148 0.946992 9.30148 0.666992 9.64648 0.666992C9.99148 0.666992 10.2715 0.946992 10.2715 1.29199V3.71616C10.2715 4.55283 10.9523 5.23449 11.7882 5.23699H14.0823C14.4273 5.23699 14.7073 5.51699 14.7073 5.86199C14.7073 6.20699 14.4273 6.48699 14.0823 6.48699" fill="#3C3C3C"/>
<path fill-rule="evenodd" clip-rule="evenodd" d="M9.49023 12.4238H4.99023C4.64523 12.4238 4.36523 12.1438 4.36523 11.7988C4.36523 11.4538 4.64523 11.1738 4.99023 11.1738H9.49023C9.83523 11.1738 10.1152 11.4538 10.1152 11.7988C10.1152 12.1438 9.83523 12.4238 9.49023 12.4238" fill="#3C3C3C"/>
<path fill-rule="evenodd" clip-rule="evenodd" d="M7.78592 9.29687H4.98926C4.64426 9.29687 4.36426 9.01687 4.36426 8.67187C4.36426 8.32687 4.64426 8.04688 4.98926 8.04688H7.78592C8.13092 8.04688 8.41092 8.32687 8.41092 8.67187C8.41092 9.01687 8.13092 9.29687 7.78592 9.29687" fill="#3C3C3C"/>
</svg>
