<svg width="17" height="18" viewBox="0 0 17 18" fill="none" xmlns="http://www.w3.org/2000/svg">
<mask id="mask0_320_797" style="mask-type:luminance" maskUnits="userSpaceOnUse" x="0" y="0" width="17" height="18">
<path fill-rule="evenodd" clip-rule="evenodd" d="M0.666992 0.666992H16.7377V17.9345H0.666992V0.666992Z" fill="white"/>
</mask>
<g mask="url(#mask0_320_797)">
<path fill-rule="evenodd" clip-rule="evenodd" d="M5.00226 13.5337C5.19309 13.5337 5.38393 13.5578 5.57059 13.6078C6.13392 13.7595 6.62309 14.1362 6.91309 14.642C7.10143 14.9595 7.20559 15.3303 7.20893 15.7087C7.20893 16.2503 7.64393 16.6845 8.17893 16.6845H9.22309C9.75559 16.6845 10.1906 16.2528 10.1931 15.7203C10.1898 15.132 10.4198 14.5728 10.8406 14.152C11.2556 13.737 11.8356 13.4878 12.4156 13.5045C12.7956 13.5137 13.1614 13.6162 13.4839 13.7995C13.9481 14.0653 14.5406 13.907 14.8089 13.4487L15.3623 12.5262C15.4856 12.3137 15.5214 12.047 15.4556 11.8012C15.3906 11.5553 15.2273 11.342 15.0073 11.2162C14.4923 10.9195 14.1248 10.4412 13.9723 9.86783C13.8214 9.30533 13.9039 8.69116 14.1981 8.18533C14.3898 7.85199 14.6706 7.57116 15.0073 7.37783C15.4589 7.11366 15.6173 6.52283 15.3548 6.06283C15.3439 6.04449 15.3339 6.02533 15.3256 6.00533L14.8373 5.15866C14.5714 4.69616 13.9798 4.53699 13.5156 4.80116C13.0139 5.09783 12.4173 5.18283 11.8439 5.03199C11.2714 4.88366 10.7914 4.52116 10.4923 4.00949C10.3006 3.68949 10.1964 3.31699 10.1931 2.93783C10.2006 2.65283 10.1006 2.39699 9.91892 2.20949C9.73809 2.02283 9.48392 1.91699 9.22309 1.91699H8.17893C7.92059 1.91699 7.67893 2.01783 7.49643 2.19949C7.31476 2.38199 7.21559 2.62449 7.21726 2.88283C7.19976 4.10116 6.20393 5.08199 4.99809 5.08199C4.61143 5.07783 4.23893 4.97366 3.91559 4.78033C3.46143 4.52199 2.86809 4.68116 2.60226 5.14366L2.03809 6.07116C1.77976 6.51949 1.93809 7.11199 2.39809 7.37949C3.08059 7.77449 3.50643 8.51116 3.50643 9.30116C3.50643 10.0912 3.08059 10.827 2.39643 11.2228C1.93893 11.4878 1.78059 12.077 2.04559 12.5353L2.57143 13.442C2.70143 13.6762 2.91393 13.8453 3.15976 13.9145C3.40476 13.9828 3.67476 13.9537 3.89976 13.8287C4.23059 13.6345 4.61559 13.5337 5.00226 13.5337M9.22309 17.9345H8.17893C6.95476 17.9345 5.95893 16.9395 5.95893 15.7153C5.95726 15.5645 5.91393 15.4078 5.83309 15.272C5.70226 15.0437 5.49059 14.8803 5.24643 14.8153C5.00393 14.7503 4.73809 14.7862 4.51976 14.9128C3.99643 15.2045 3.38059 15.2753 2.81726 15.117C2.25476 14.9578 1.76893 14.5712 1.48393 14.0587L0.963092 13.1612C0.353925 12.1045 0.716425 10.7503 1.77143 10.1403C2.07059 9.96783 2.25643 9.64616 2.25643 9.30116C2.25643 8.95616 2.07059 8.63366 1.77143 8.46116C0.715592 7.84783 0.353925 6.49033 0.962259 5.43366L1.52726 4.50616C2.12809 3.46116 3.48643 3.09283 4.54559 3.70116C4.68976 3.78699 4.84643 3.83033 5.00559 3.83199C5.52476 3.83199 5.95893 3.40366 5.96726 2.87699C5.96393 2.29616 6.19309 1.73866 6.61059 1.31783C7.02976 0.897826 7.58643 0.666992 8.17893 0.666992H9.22309C9.81976 0.666992 10.3998 0.911992 10.8156 1.33783C11.2306 1.76616 11.4598 2.35366 11.4423 2.94949C11.4439 3.08366 11.4881 3.23866 11.5681 3.37449C11.7006 3.59949 11.9098 3.75783 12.1581 3.82283C12.4064 3.88449 12.6664 3.85116 12.8873 3.72033C13.9539 3.11116 15.3114 3.47616 15.9206 4.53449L16.4398 5.43366C16.4531 5.45783 16.4648 5.48116 16.4748 5.50533C17.0264 6.54783 16.6581 7.86033 15.6331 8.45949C15.4839 8.54533 15.3631 8.66533 15.2798 8.81033C15.1506 9.03449 15.1148 9.30116 15.1798 9.54616C15.2464 9.79616 15.4056 10.0037 15.6298 10.132C16.1356 10.4228 16.5131 10.9128 16.6639 11.4787C16.8148 12.0437 16.7323 12.657 16.4381 13.1628L15.8848 14.0845C15.2756 15.1312 13.9181 15.4937 12.8623 14.8837C12.7214 14.8028 12.5589 14.7587 12.3973 14.7545H12.3923C12.1514 14.7545 11.9039 14.857 11.7239 15.0362C11.5414 15.2187 11.4414 15.462 11.4431 15.7203C11.4373 16.9445 10.4414 17.9345 9.22309 17.9345" fill="white"/>
</g>
<path fill-rule="evenodd" clip-rule="evenodd" d="M8.70448 7.72852C7.83781 7.72852 7.13281 8.43435 7.13281 9.30102C7.13281 10.1677 7.83781 10.8718 8.70448 10.8718C9.57115 10.8718 10.2761 10.1677 10.2761 9.30102C10.2761 8.43435 9.57115 7.72852 8.70448 7.72852M8.70448 12.1218C7.14865 12.1218 5.88281 10.8568 5.88281 9.30102C5.88281 7.74518 7.14865 6.47852 8.70448 6.47852C10.2603 6.47852 11.5261 7.74518 11.5261 9.30102C11.5261 10.8568 10.2603 12.1218 8.70448 12.1218" fill="white"/>
</svg>
