<svg width="18" height="16" viewBox="0 0 18 16" fill="none" xmlns="http://www.w3.org/2000/svg">
<mask id="mask0_320_269" style="mask-type:luminance" maskUnits="userSpaceOnUse" x="0" y="0" width="18" height="16">
<path fill-rule="evenodd" clip-rule="evenodd" d="M0.666992 0.500488H17.3337V15.6388H0.666992V0.500488Z" fill="white"/>
</mask>
<g mask="url(#mask0_320_269)">
<path fill-rule="evenodd" clip-rule="evenodd" d="M1.91699 10.483V12.1872C1.91699 12.7755 2.14533 13.328 2.56116 13.7438C2.97699 14.1597 3.53033 14.3888 4.11783 14.3888H13.8812C15.0945 14.3888 16.0828 13.4022 16.0837 12.1888V10.4822C15.012 10.2047 14.2178 9.22882 14.217 8.07132C14.217 6.91382 15.0112 5.93799 16.0828 5.65965L16.0837 3.95549C16.0845 2.74049 15.0987 1.75132 13.8845 1.75049H4.12033C2.90616 1.75049 1.91783 2.73799 1.91699 3.95215V5.71632C2.32199 5.81299 2.69783 6.01216 3.01033 6.30382C3.48449 6.74632 3.75783 7.34632 3.78116 7.99465C3.78366 9.21632 2.98949 10.203 1.91699 10.483M13.8812 15.6388H4.11866C3.19616 15.6388 2.32949 15.2805 1.67699 14.628C1.02533 13.9755 0.666992 13.1088 0.666992 12.1872V9.93716C0.666992 9.59216 0.946992 9.31216 1.29199 9.31216C1.97866 9.31132 2.53366 8.75465 2.53283 8.07132C2.52116 7.72299 2.38783 7.43299 2.15783 7.21799C1.92866 7.00299 1.63199 6.88549 1.31366 6.90299C1.14116 6.90465 0.979492 6.84549 0.857826 6.72799C0.736159 6.61049 0.666992 6.44715 0.666992 6.27799V3.95299C0.667826 2.04882 2.21699 0.500488 4.12033 0.500488H13.8803C15.7887 0.501322 17.3353 2.05299 17.3337 3.95632V6.20549C17.3337 6.55049 17.0537 6.83049 16.7087 6.83049C16.0245 6.83049 15.467 7.38715 15.467 8.07049C15.4678 8.75549 16.0245 9.31216 16.7087 9.31216C17.0537 9.31216 17.3337 9.59216 17.3337 9.93716V12.1872C17.3328 14.0905 15.7837 15.6388 13.8812 15.6388" fill="#3C3C3C"/>
</g>
<path fill-rule="evenodd" clip-rule="evenodd" d="M7.42035 7.48452L7.84451 7.89785C8.07451 8.12368 8.17868 8.44535 8.12368 8.75952L8.02368 9.34118L8.54785 9.06535C8.83035 8.91452 9.16951 8.91535 9.45451 9.06702L9.97535 9.34035L9.87535 8.75785C9.82285 8.43868 9.92785 8.11952 10.1553 7.89785L10.5795 7.48452L9.99201 7.39952C9.67701 7.35368 9.40368 7.15535 9.26285 6.86785L9.00035 6.33702L8.73785 6.86868C8.59701 7.15535 8.32368 7.35368 8.00701 7.39952L7.42035 7.48452ZM10.3487 10.8229C10.1937 10.8229 10.0387 10.7854 9.89535 10.7095L9.00034 10.2404L8.10451 10.7104C7.77451 10.8829 7.38201 10.8554 7.08201 10.637C6.78118 10.4179 6.63368 10.0545 6.69618 9.68785L6.86701 8.69118L6.14284 7.98535C5.87701 7.72618 5.78201 7.34535 5.89618 6.99202C6.01118 6.63785 6.31118 6.38368 6.67868 6.33035L7.68201 6.18368L8.12951 5.27618C8.29368 4.94285 8.62701 4.73535 9.00034 4.73535C9.37201 4.73535 9.70618 4.94285 9.87034 5.27702L10.3187 6.18368L11.3203 6.33035C11.6887 6.38368 11.9895 6.63785 12.1037 6.99202C12.2178 7.34535 12.1237 7.72618 11.857 7.98618L11.132 8.69202L11.3037 9.68785C11.3662 10.0554 11.2178 10.4195 10.9162 10.6379C10.7462 10.7604 10.5478 10.8229 10.3487 10.8229V10.8229Z" fill="#3C3C3C"/>
</svg>
