<svg width="19" height="15" viewBox="0 0 19 15" fill="none" xmlns="http://www.w3.org/2000/svg">
<path fill-rule="evenodd" clip-rule="evenodd" d="M9.88271 7.9485H9.90521C12.0052 7.9485 13.7127 6.24016 13.7127 4.141C13.7127 2.04183 12.0052 0.333496 9.90521 0.333496C7.80604 0.333496 6.09854 2.04183 6.09854 4.1385C6.09438 5.15266 6.48521 6.10766 7.20021 6.82683C7.91354 7.54683 8.86604 7.94516 9.88271 7.9485ZM7.34854 4.141C7.34854 2.731 8.49521 1.5835 9.90521 1.5835C11.3152 1.5835 12.4627 2.731 12.4627 4.141C12.4627 5.55183 11.3152 6.6985 9.90521 6.6985H9.88438C9.20438 6.696 8.56604 6.4285 8.08688 5.946C7.60771 5.4635 7.34604 4.82433 7.34854 4.141Z" fill="white"/>
<path d="M14.2869 6.58392C14.3311 6.89642 14.5986 7.12225 14.9053 7.12225C14.9336 7.12225 14.9628 7.12058 14.9919 7.11642C16.4711 6.90892 17.5886 5.62558 17.5919 4.12975C17.5919 2.64392 16.5278 1.39058 15.0628 1.14975C14.7203 1.09558 14.4011 1.32392 14.3444 1.66475C14.2886 2.00558 14.5194 2.32725 14.8594 2.38308C15.7186 2.52392 16.3419 3.25892 16.3419 4.12808C16.3403 5.00475 15.6861 5.75642 14.8194 5.87808C14.4769 5.92559 14.2394 6.24142 14.2869 6.58392Z" fill="white"/>
<path d="M16.7999 12.0403C16.8949 12.2895 17.1324 12.4428 17.3841 12.4428C17.4583 12.4428 17.5333 12.4295 17.6066 12.402C18.7983 11.9478 18.9766 11.1203 18.9766 10.667C18.9766 9.92446 18.5524 8.97613 16.5333 8.67363C16.1891 8.62946 15.8724 8.85696 15.8216 9.19863C15.7708 9.54113 16.0066 9.85863 16.3474 9.91029C17.2624 10.047 17.7266 10.302 17.7266 10.667C17.7266 10.7811 17.7266 11.0186 17.1616 11.2336C16.8391 11.3561 16.6766 11.7178 16.7999 12.0403Z" fill="white"/>
<path fill-rule="evenodd" clip-rule="evenodd" d="M9.90518 14.3259C8.52268 14.3259 4.31435 14.3259 4.31435 11.6634C4.31435 9.01178 8.52268 9.01178 9.90518 9.01178C11.2877 9.01178 15.4952 9.01178 15.4952 11.6776C15.4952 14.3259 11.4344 14.3259 9.90518 14.3259ZM9.90518 10.2618C7.92518 10.2618 5.56435 10.5051 5.56435 11.6634C5.56435 12.8309 7.92518 13.0759 9.90518 13.0759C11.8852 13.0759 14.2452 12.8334 14.2452 11.6776C14.2452 10.5076 11.8852 10.2618 9.90518 10.2618Z" fill="white"/>
<path d="M4.90434 7.1222C4.87601 7.1222 4.84684 7.12054 4.81767 7.11637C3.33851 6.90887 2.22184 5.62554 2.21851 4.13137C2.21851 2.64387 3.28267 1.39054 4.74767 1.1497C5.09851 1.0947 5.40934 1.32554 5.46601 1.6647C5.52184 2.00554 5.29101 2.3272 4.95101 2.38304C4.09184 2.52387 3.46851 3.25887 3.46851 4.1297C3.47017 5.0047 4.12434 5.7572 4.99017 5.87804C5.33267 5.92554 5.57017 6.24137 5.52267 6.58387C5.47851 6.89637 5.21101 7.1222 4.90434 7.1222Z" fill="white"/>
<path d="M2.20384 12.402C2.27717 12.4295 2.35217 12.4428 2.42634 12.4428C2.67801 12.4428 2.91551 12.2895 3.01051 12.0403C3.13384 11.7178 2.97134 11.3562 2.64884 11.2337C2.08301 11.0178 2.08301 10.7812 2.08301 10.667C2.08301 10.302 2.54717 10.047 3.46217 9.91032C3.80301 9.85865 4.03884 9.54115 3.98801 9.19866C3.93634 8.85699 3.62134 8.63032 3.27717 8.67365C1.25717 8.97615 0.833008 9.92532 0.833008 10.667C0.833008 11.1195 1.01134 11.947 2.20384 12.402Z" fill="white"/>
</svg>
