<svg width="18" height="18" viewBox="0 0 18 18" fill="none" xmlns="http://www.w3.org/2000/svg">
<path fill-rule="evenodd" clip-rule="evenodd" d="M7.92062 1.93232C7.36201 1.93232 6.88677 2.3205 6.75337 2.84371H11.2389C11.1055 2.3205 10.6303 1.93232 10.0717 1.93232H7.92062ZM12.5062 2.84371H14.1571C15.9079 2.84371 17.3337 4.28674 17.3337 6.05888C17.3337 6.05888 17.2836 6.80909 17.267 7.85381C17.2653 7.93651 17.2253 8.01752 17.1594 8.06647C16.7584 8.36267 16.3915 8.60739 16.3582 8.62427C14.9741 9.55253 13.3658 10.2057 11.6525 10.5306C11.5408 10.5525 11.4307 10.4943 11.374 10.3947C10.8938 9.56266 9.99666 9.02089 8.99616 9.02089C8.00233 9.02089 7.09687 9.55675 6.60246 10.3897C6.54493 10.4876 6.43654 10.5441 6.32565 10.523C4.62647 10.1973 3.01817 9.54494 1.64248 8.63271L0.84208 8.07575C0.77538 8.03356 0.733692 7.95761 0.733692 7.87322C0.70868 7.44284 0.666992 6.05888 0.666992 6.05888C0.666992 4.28674 2.09271 2.84371 3.84358 2.84371H5.48607C5.64448 1.62009 6.66999 0.666504 7.92062 0.666504H10.0717C11.3223 0.666504 12.3478 1.62009 12.5062 2.84371ZM17.0502 9.6792L17.0168 9.69608C15.3327 10.8269 13.3066 11.5779 11.1806 11.8902C10.8804 11.9324 10.5803 11.7383 10.4969 11.4345C10.3135 10.7425 9.72152 10.2868 9.01283 10.2868H9.00449H8.98782C8.27913 10.2868 7.68717 10.7425 7.50374 11.4345C7.42037 11.7383 7.12022 11.9324 6.82007 11.8902C4.69401 11.5779 2.66799 10.8269 0.983817 9.69608C0.97548 9.68764 0.892105 9.63701 0.825405 9.6792C0.750367 9.72139 0.750367 9.82266 0.750367 9.82266L0.80873 14.1264C0.80873 15.8986 2.22611 17.3332 3.97698 17.3332H14.0153C15.7662 17.3332 17.1836 15.8986 17.1836 14.1264L17.2503 9.82266C17.2503 9.82266 17.2503 9.72139 17.1752 9.6792C17.1336 9.65388 17.0835 9.66232 17.0502 9.6792ZM9.62147 13.215C9.62147 13.5695 9.34633 13.848 8.99616 13.848C8.65432 13.848 8.37084 13.5695 8.37084 13.215V12.1264C8.37084 11.7805 8.65432 11.4935 8.99616 11.4935C9.34633 11.4935 9.62147 11.7805 9.62147 12.1264V13.215Z" fill="#3C3C3C"/>
</svg>
